<svg xmlns="http://www.w3.org/2000/svg" viewBox="0 0 401 194.42"><defs><style>.cls-1{fill:#eccb8b;stroke:#eccb8b;}.cls-1,.cls-10,.cls-11,.cls-2,.cls-3,.cls-4,.cls-5,.cls-6,.cls-7,.cls-8,.cls-9{stroke-miterlimit:10;}.cls-2{fill:#a4be8c;stroke:#a4be8c;}.cls-3{fill:#bf616a;stroke:#bf616a;}.cls-4{fill:#2e3440;stroke:#2e3440;}.cls-5{fill:#3b4253;stroke:#3b4253;}.cls-6{fill:#81a1c1;stroke:#81a1c1;}.cls-7{fill:#b48ead;stroke:#b48ead;}.cls-8{fill:#89c0cf;stroke:#89c0cf;}.cls-9{fill:#e5e9ef;stroke:#e5e9ef;}.cls-10{fill:#8ac0ce;stroke:#8ac0ce;}.cls-11{fill:#edcb8b;stroke:#edcb8b;}</style></defs><g id="Layer_2" data-name="Layer 2"><g id="Layer_1-2" data-name="Layer 1"><rect class="cls-1" x="176.61" y="11.73" width="32.45" height="8.71" rx="2.84"/><rect class="cls-2" x="111.16" y="11.73" width="63.32" height="8.71" rx="2.84"/><rect class="cls-3" x="154.35" y="0.5" width="33" height="8.71" rx="2.84"/><rect class="cls-4" x="130.55" y="0.5" width="21.77" height="8.71" rx="2.84"/><rect class="cls-5" x="158.8" y="22.96" width="63.32" height="8.71" rx="2.84"/><rect class="cls-5" x="123.97" y="22.96" width="32.45" height="8.71" rx="2.84"/><rect class="cls-3" x="95.48" y="22.96" width="25.62" height="8.71" rx="2.84"/><rect class="cls-1" x="85.19" y="34.19" width="63.32" height="8.71" rx="2.84"/><rect class="cls-3" x="151.67" y="34.19" width="63.32" height="8.71" rx="2.84"/><rect class="cls-6" x="217.27" y="34.19" width="16.97" height="8.71" rx="2.84"/><rect class="cls-2" x="78.54" y="45.42" width="16.97" height="8.71" rx="2.84"/><rect class="cls-5" x="98.42" y="45.42" width="16.97" height="8.71" rx="2.84"/><rect class="cls-7" x="118.14" y="45.42" width="63.32" height="8.71" rx="2.84"/><rect class="cls-8" x="183.33" y="45.42" width="55.5" height="8.71" rx="2.84"/><rect class="cls-3" x="74.36" y="56.87" width="63.32" height="8.71" rx="2.84"/><rect class="cls-6" x="140.03" y="56.87" width="16.97" height="8.71" rx="2.84"/><rect class="cls-3" x="160.38" y="56.87" width="32.45" height="8.71" rx="2.84"/><rect class="cls-9" x="195.03" y="56.87" width="16.97" height="8.71" rx="2.84"/><rect class="cls-3" x="274.06" y="22.96" width="34.92" height="8.71" rx="2.84"/><rect class="cls-2" x="249.55" y="34.19" width="22.26" height="8.71" rx="2.84"/><rect class="cls-7" x="274.7" y="34.19" width="32.45" height="8.71" rx="2.84"/><rect class="cls-1" x="309.75" y="34.19" width="16.97" height="8.71" rx="2.84"/><rect class="cls-9" x="281.23" y="45.42" width="55.5" height="8.71" rx="2.84"/><rect class="cls-3" x="244.92" y="45.42" width="32.97" height="8.71" rx="2.84"/><rect class="cls-5" x="214.99" y="56.87" width="63.32" height="8.71" rx="2.84"/><rect class="cls-2" x="281.23" y="56.87" width="32.45" height="8.71" rx="2.84"/><rect class="cls-1" x="316.43" y="56.87" width="25.7" height="8.71" rx="2.84"/><rect class="cls-7" x="72.87" y="68.44" width="24.24" height="8.71" rx="2.84"/><rect class="cls-5" x="99.73" y="68.44" width="50.06" height="8.71" rx="2.84"/><rect class="cls-8" x="153.26" y="68.44" width="24.24" height="8.71" rx="2.84"/><rect class="cls-5" x="181.45" y="68.44" width="32.45" height="8.71" rx="2.84"/><rect class="cls-3" x="216.55" y="68.44" width="34.55" height="8.71" rx="2.84"/><rect class="cls-4" x="282.02" y="68.44" width="63.32" height="8.71" rx="2.84"/><rect class="cls-3" x="253.29" y="68.44" width="25.7" height="8.71" rx="2.84"/><rect class="cls-4" x="36.09" y="79.6" width="63.32" height="8.71" rx="2.84"/><rect class="cls-1" x="101.76" y="79.6" width="16.97" height="8.71" rx="2.84"/><rect class="cls-8" x="122.12" y="79.6" width="32.45" height="8.71" rx="2.84"/><rect class="cls-9" x="156.77" y="79.6" width="16.97" height="8.71" rx="2.84"/><rect class="cls-1" x="176.73" y="79.6" width="63.32" height="8.71" rx="2.84"/><rect class="cls-6" x="242.97" y="79.6" width="32.45" height="8.71" rx="2.84"/><rect class="cls-9" x="278.17" y="79.6" width="67.18" height="8.71" rx="2.84"/><rect class="cls-5" x="34.61" y="91.18" width="24.24" height="8.71" rx="2.84"/><rect class="cls-3" x="61.47" y="91.18" width="50.06" height="8.71" rx="2.84"/><rect class="cls-7" x="114.99" y="91.18" width="24.24" height="8.71" rx="2.84"/><rect class="cls-5" x="143.19" y="91.18" width="32.45" height="8.71" rx="2.84"/><rect class="cls-3" x="178.29" y="91.18" width="34.55" height="8.71" rx="2.84"/><rect class="cls-5" x="243.76" y="91.18" width="63.32" height="8.71" rx="2.84"/><rect class="cls-2" x="215.03" y="91.18" width="25.7" height="8.71" rx="2.84"/><rect class="cls-3" x="7.72" y="102.75" width="67.23" height="8.71" rx="2.84"/><rect class="cls-6" x="77.3" y="102.75" width="16.97" height="8.71" rx="2.84"/><rect class="cls-5" x="97.66" y="102.75" width="32.45" height="8.71" rx="2.84"/><rect class="cls-9" x="132.31" y="102.75" width="16.97" height="8.71" rx="2.84"/><rect class="cls-7" x="152.27" y="102.75" width="63.32" height="8.71" rx="2.84"/><rect class="cls-4" x="218.51" y="102.75" width="32.45" height="8.71" rx="2.84"/><rect class="cls-3" x="253.7" y="102.75" width="25.7" height="8.71" rx="2.84"/><rect class="cls-4" x="2.58" y="114.33" width="31.81" height="8.71" rx="2.84"/><rect class="cls-3" x="37.01" y="114.33" width="50.06" height="8.71" rx="2.84"/><rect class="cls-4" x="90.53" y="114.33" width="24.24" height="8.71" rx="2.84"/><rect class="cls-1" x="118.73" y="114.33" width="32.45" height="8.71" rx="2.84"/><rect class="cls-8" x="153.83" y="114.33" width="34.55" height="8.71" rx="2.84"/><rect class="cls-1" x="219.3" y="114.33" width="63.32" height="8.71" rx="2.84"/><rect class="cls-4" x="190.57" y="114.33" width="25.7" height="8.71" rx="2.84"/><rect class="cls-5" x="80.84" y="127.34" width="63.32" height="8.71" rx="2.84"/><rect class="cls-6" x="146.51" y="127.34" width="16.97" height="8.71" rx="2.84"/><rect class="cls-3" x="166.86" y="127.34" width="32.45" height="8.71" rx="2.84"/><rect class="cls-5" x="201.51" y="127.34" width="16.97" height="8.71" rx="2.84"/><rect class="cls-9" x="221.47" y="127.34" width="63.32" height="8.71" rx="2.84"/><rect class="cls-8" x="287.71" y="127.34" width="32.45" height="8.71" rx="2.84"/><rect class="cls-4" x="322.91" y="127.34" width="25.7" height="8.71" rx="2.84"/><rect class="cls-10" x="49.18" y="138.91" width="54.42" height="8.71" rx="2.84"/><rect class="cls-2" x="106.21" y="138.91" width="50.06" height="8.71" rx="2.84"/><rect class="cls-4" x="159.74" y="138.91" width="24.24" height="8.71" rx="2.84"/><rect class="cls-7" x="187.94" y="138.91" width="32.45" height="8.71" rx="2.84"/><rect class="cls-6" x="223.03" y="138.91" width="34.55" height="8.71" rx="2.84"/><rect class="cls-8" x="288.5" y="138.91" width="63.32" height="8.71" rx="2.84"/><rect class="cls-4" x="259.78" y="138.91" width="25.7" height="8.71" rx="2.84"/><rect class="cls-4" x="6.58" y="150.49" width="81.4" height="8.71" rx="2.84"/><rect class="cls-7" x="90.33" y="150.49" width="16.97" height="8.71" rx="2.84"/><rect class="cls-8" x="110.69" y="150.49" width="32.45" height="8.71" rx="2.84"/><rect class="cls-9" x="145.34" y="150.49" width="16.97" height="8.71" rx="2.84"/><rect class="cls-4" x="165.3" y="150.49" width="63.32" height="8.71" rx="2.84"/><rect class="cls-9" x="231.54" y="150.49" width="32.45" height="8.71" rx="2.84"/><rect class="cls-8" x="266.74" y="150.49" width="25.7" height="8.71" rx="2.84"/><rect class="cls-1" x="12.53" y="162.06" width="13.94" height="8.71" rx="2.84"/><rect class="cls-6" x="50.04" y="162.06" width="50.06" height="8.71" rx="2.84"/><rect class="cls-5" x="103.57" y="162.06" width="24.24" height="8.71" rx="2.84"/><rect class="cls-8" x="131.76" y="162.06" width="32.45" height="8.71" rx="2.84"/><rect class="cls-3" x="166.86" y="162.06" width="34.55" height="8.71" rx="2.84"/><rect class="cls-5" x="232.33" y="162.06" width="63.32" height="8.71" rx="2.84"/><rect class="cls-1" x="203.6" y="162.06" width="25.7" height="8.71" rx="2.84"/><rect class="cls-3" x="77.25" y="173.64" width="63.32" height="8.71" rx="2.84"/><rect class="cls-4" x="142.92" y="173.64" width="16.97" height="8.71" rx="2.84"/><rect class="cls-6" x="163.28" y="173.64" width="32.45" height="8.71" rx="2.84"/><rect class="cls-4" x="197.93" y="173.64" width="16.97" height="8.71" rx="2.84"/><rect class="cls-7" x="217.89" y="173.64" width="63.32" height="8.71" rx="2.84"/><rect class="cls-4" x="284.13" y="173.64" width="32.45" height="8.71" rx="2.84"/><rect class="cls-5" x="319.32" y="173.64" width="25.7" height="8.71" rx="2.84"/><rect class="cls-4" x="75.77" y="185.21" width="24.24" height="8.71" rx="2.84"/><rect class="cls-5" x="102.63" y="185.21" width="50.06" height="8.71" rx="2.84"/><rect class="cls-2" x="156.15" y="185.21" width="24.24" height="8.71" rx="2.84"/><rect class="cls-6" x="184.35" y="185.21" width="32.45" height="8.71" rx="2.84"/><rect class="cls-3" x="219.45" y="185.21" width="34.55" height="8.71" rx="2.84"/><rect class="cls-10" x="284.92" y="185.21" width="72.64" height="8.71" rx="2.84"/><rect class="cls-4" x="256.19" y="185.21" width="25.7" height="8.71" rx="2.84"/><rect class="cls-6" x="310.47" y="91.18" width="31.66" height="8.71" rx="2.84"/><rect class="cls-3" x="344.8" y="91.18" width="34.53" height="8.71" rx="2.84"/><rect class="cls-8" x="282.62" y="102.75" width="55.35" height="8.71" rx="2.84"/><rect class="cls-4" x="340.85" y="102.75" width="48.86" height="8.71" rx="2.84"/><rect class="cls-2" x="285.47" y="114.33" width="44.48" height="8.71" rx="2.84"/><rect class="cls-7" x="332.2" y="114.33" width="27.44" height="8.71" rx="2.84"/><rect class="cls-9" x="362.06" y="114.33" width="36.26" height="8.71" rx="2.84"/><rect class="cls-2" x="15.14" y="91.18" width="16.87" height="8.71" rx="2.84"/><rect class="cls-1" x="350.83" y="127.34" width="49.67" height="8.71" rx="2.84"/><rect class="cls-9" x="354" y="138.91" width="19.29" height="8.71" rx="2.84"/><rect class="cls-8" x="375.67" y="138.47" width="24.83" height="8.71" rx="2.84"/><rect class="cls-6" x="46.73" y="127.34" width="31.81" height="8.71" rx="2.84"/><rect class="cls-11" x="0.5" y="127.34" width="43.61" height="8.71" rx="2.84"/><rect class="cls-2" x="2.58" y="138.91" width="44.15" height="8.71" rx="2.84"/><rect class="cls-5" x="28.4" y="162.06" width="19.29" height="8.71" rx="2.84"/><rect class="cls-2" x="348.24" y="173.64" width="31.09" height="8.71" rx="2.84"/><rect class="cls-9" x="298.3" y="162.06" width="37.46" height="8.71" rx="2.84"/><rect class="cls-8" x="338.96" y="162.06" width="50.75" height="8.71" rx="2.84"/><rect class="cls-6" x="295.65" y="150.49" width="49.15" height="8.71" rx="2.84"/><rect class="cls-5" x="347.67" y="150.49" width="49.86" height="8.71" rx="2.84"/><rect class="cls-4" x="24.24" y="173.64" width="50.83" height="8.71" rx="2.84"/><rect class="cls-1" x="48.29" y="185.21" width="25.13" height="8.71" rx="2.84"/></g></g></svg>